<?xml version="1.0" encoding="UTF-8"?>
<!DOCTYPE svg PUBLIC "-//W3C//DTD SVG 1.1//EN" "http://www.w3.org/Graphics/SVG/1.1/DTD/svg11.dtd">
<!-- Creator: CorelDRAW X5 -->
<svg xmlns="http://www.w3.org/2000/svg" xml:space="preserve" width="567.619mm" height="211.667mm" style="shape-rendering:geometricPrecision; text-rendering:geometricPrecision; image-rendering:optimizeQuality; fill-rule:evenodd; clip-rule:evenodd"
viewBox="0 0 56762 21167"
 xmlns:xlink="http://www.w3.org/1999/xlink">
 <defs>
  <style type="text/css">
   <![CDATA[
    .str0 {stroke:#9D9E9E;stroke-width:31}
    .fil2 {fill:none}
    .fil1 {fill:#FEFEFE}
    .fil0 {fill:#626262}
   ]]>
  </style>
 </defs>
 <g id="Warstwa_x0020_1">
  <metadata id="CorelCorpID_0Corel-Layer"/>
  <g id="_430309912">
   <circle class="fil0" cx="41289" cy="17830" r="3336"/>
   <circle class="fil1" cx="41289" cy="17830" r="2102"/>
   <circle class="fil0" cx="41289" cy="17830" r="926"/>
  </g>
  <g id="_430309432">
   <circle class="fil0" cx="12816" cy="17830" r="3336"/>
   <circle class="fil1" cx="12816" cy="17830" r="2102"/>
   <circle class="fil0" cx="12816" cy="17830" r="926"/>
  </g>
  <path class="fil0" d="M4806 18564l1855 762 2388 158 -68 -967 0 0c-22,-169 -33,-341 -33,-516 0,-2176 1757,-3940 3925,-3940 2168,0 3925,1764 3925,3940 0,73 -2,146 -6,219l0 0 202 1071 93 -8 20303 -544 36 -1126c0,-2176 1757,-3940 3925,-3940 2093,0 3802,1644 3919,3715l0 0 58 1040 174 -8 5234 -733c284,-179 569,-379 884,-1316l93 -1325c-3,-120 -10,-254 -153,-341l-714 -577c-59,-1090 155,-2267 -177,-3271 -1147,-1242 -2265,-2427 -3634,-3640 110,-134 94,-354 32,-660 -1539,-128 -2785,-286 -4640,-342 -5625,-260 -11150,-635 -16963,385 -2993,590 -5699,2430 -8445,4021l-1188 77c-5529,815 -8628,1644 -9986,2875 -371,398 -470,1127 -510,1712l-486 388 -14 1107 263 173 -12 1165 -278 446z"/>
  <path class="fil1" d="M5831 14038c-185,96 -274,300 -252,503l475 697 1179 -122c1083,-141 1455,-772 2308,-1496 -1579,-2 -2569,204 -3710,417z"/>
  <path class="fil1" d="M16555 11013c170,-134 227,-229 463,-392 1461,-1010 4405,-2709 6563,-3502l509 379c-2246,949 -4146,2020 -6133,3322 -180,125 -331,177 -647,180l-755 14z"/>
  <path class="fil2 str0" d="M17018 10621c2126,-1462 4281,-2579 6563,-3502"/>
  <path class="fil1" d="M21250 11323l7305 -482 1043 -3538c-3216,62 -5551,549 -8724,2524l-20 482c249,134 398,391 388,561l7 453z"/>
  <polygon class="fil1" points="37392,7254 30777,7275 30368,10741 37112,10439 "/>
  <path class="fil1" d="M37601 7297l-266 3128 1474 -36 3 -316c7,-765 -319,-1705 -650,-2409 -104,-220 -302,-331 -561,-367z"/>
  <path class="fil1" d="M44051 7663c-1653,-168 -3082,-257 -4702,-259l906 2855 4278 -180c374,-86 884,-244 928,-539 70,-252 -767,-1294 -1409,-1877z"/>
  <path class="fil1" d="M46952 7142c1313,1106 2404,2274 3279,3242l-1158 15 -2538 -2797 417 -460z"/>
  <path class="fil2 str0" d="M46952 7142c1291,1097 2213,2093 3317,3283"/>
  <path class="fil1" d="M50583 10900c211,93 238,675 267,1018 -41,224 -150,323 -288,380l-1704 108 -748 -949c-48,-158 141,-439 460,-518l2013 -39z"/>
  <path class="fil2 str0" d="M50729 11063c100,395 108,647 122,884"/>
 </g>
</svg>
